<?xml version="1.0" encoding="UTF-8"?>
<svg xmlns="http://www.w3.org/2000/svg" width="5400" height="4500" viewBox="0 0 1000 1000">
  
        <defs>
          <linearGradient id="irisGrad" x1="0" y1="0" x2="1" y2="1">
            <stop offset="0%" stop-color="#7DF9FF"/>
            <stop offset="55%" stop-color="#6A5BFF"/>
            <stop offset="100%" stop-color="#FF3CAC"/>
          </linearGradient>
          <filter id="glowCyan" x="-40%" y="-40%" width="180%" height="180%">
            <feGaussianBlur stdDeviation="6" result="blur"/>
            <feMerge>
              <feMergeNode in="blur"/>
              <feMergeNode in="SourceGraphic"/>
            </feMerge>
          </filter>
          <filter id="glowMag" x="-60%" y="-60%" width="220%" height="220%">
            <feGaussianBlur stdDeviation="10" result="blur"/>
            <feColorMatrix type="matrix" values="
              1 0 0 0 0
              0 0.5 0 0 0
              0 0 1 0 0
              0 0 0 1 0" result="tint"/>
            <feMerge>
              <feMergeNode in="tint"/>
              <feMergeNode in="SourceGraphic"/>
            </feMerge>
          </filter>
        </defs>
        
  <!-- Eye outline -->
  <path d="M 90.0 500 C 336.0 290.0 664.0 290.0 910.0 500 C 664.0 710.0 336.0 710.0 90.0 500 Z" fill="none" stroke="#7DF9FF" stroke-width="22" stroke-linecap="round" stroke-linejoin="round" filter="url(#glowCyan)"/>
  <path d="M 90.0 500 C 336.0 290.0 664.0 290.0 910.0 500 C 664.0 710.0 336.0 710.0 90.0 500 Z" fill="none" stroke="#FF3CAC" stroke-width="8" stroke-linecap="round" stroke-linejoin="round" opacity="0.55"/>
  <!-- Iris -->
  <circle cx="500" cy="500" r="155" fill="url(#irisGrad)" opacity="0.85" />
  <!-- Waveform -->
  <polyline points="321.75,500.00 324.75,501.33 327.74,502.82 330.74,504.44 333.73,506.17 336.73,507.94 339.72,509.70 342.72,511.38 345.72,512.90 348.71,514.19 351.71,515.18 354.70,515.79 357.70,515.97 360.70,515.67 363.69,514.85 366.69,513.50 369.68,511.61 372.68,509.21 375.67,506.32 378.67,503.02 381.67,499.37 384.66,495.47 387.66,491.41 390.65,487.33 393.65,483.33 396.64,479.55 399.64,476.11 402.64,473.14 405.63,470.75 408.63,469.04 411.62,468.09 414.62,467.96 417.62,468.70 420.61,470.31 423.61,472.80 426.60,476.11 429.60,480.19 432.59,484.94 435.59,490.26 438.59,496.00 441.58,502.03 444.58,508.18 447.57,514.28 450.57,520.15 453.57,525.64 456.56,530.58 459.56,534.83 462.55,538.24 465.55,540.72 468.54,542.18 471.54,542.56 474.54,541.84 477.53,540.03 480.53,537.17 483.52,533.32 486.52,528.57 489.51,523.07 492.51,516.94 495.51,510.35 498.50,503.48 501.50,496.52 504.49,489.65 507.49,483.06 510.49,476.93 513.48,471.43 516.48,466.68 519.47,462.83 522.47,459.97 525.46,458.16 528.46,457.44 531.46,457.82 534.45,459.28 537.45,461.76 540.44,465.17 543.44,469.42 546.43,474.36 549.43,479.85 552.43,485.72 555.42,491.82 558.42,497.97 561.41,504.00 564.41,509.74 567.41,515.06 570.40,519.81 573.40,523.89 576.39,527.20 579.39,529.69 582.38,531.30 585.38,532.04 588.38,531.91 591.37,530.96 594.37,529.25 597.36,526.86 600.36,523.89 603.36,520.45 606.35,516.67 609.35,512.67 612.34,508.59 615.34,504.53 618.33,500.63 621.33,496.98 624.33,493.68 627.32,490.79 630.32,488.39 633.31,486.50 636.31,485.15 639.30,484.33 642.30,484.03 645.30,484.21 648.29,484.82 651.29,485.81 654.28,487.10 657.28,488.62 660.28,490.30 663.27,492.06 666.27,493.83 669.26,495.56 672.26,497.18 675.25,498.67 678.25,500.00" fill="none" stroke="#7DF9FF" stroke-width="10" stroke-linecap="round" stroke-linejoin="round" opacity="0.95" filter="url(#glowCyan)"/>
  <!-- Pupil -->
  <circle cx="500" cy="500" r="70" fill="#0B0F1A" opacity="0.95"/>
  <!-- Highlight -->
  <circle cx="445" cy="445" r="35" fill="#FFFFFF" opacity="0.55"/>
  
            <text x="500" y="860" text-anchor="middle"
                  font-family="Orbitron, 'Eurostile', 'Bank Gothic', sans-serif"
                  font-size="86" letter-spacing="12"
                  fill="#7DF9FF" filter="url(#glowCyan)">SYNTHETIC SOULS</text>
            
</svg>